<svg xmlns="http://www.w3.org/2000/svg" xmlns:xlink="http://www.w3.org/1999/xlink" width="250" zoomAndPan="magnify" viewBox="0 0 187.5 74.999997" height="100" preserveAspectRatio="xMidYMid meet" version="1.0"><defs><g/><clipPath id="e032315290"><path d="M 18 21.402344 L 27 21.402344 L 27 49.828125 L 18 49.828125 Z M 18 21.402344 " clip-rule="nonzero"/></clipPath><clipPath id="b2acad65ac"><path d="M 34 21.402344 L 43 21.402344 L 43 49.828125 L 34 49.828125 Z M 34 21.402344 " clip-rule="nonzero"/></clipPath><clipPath id="e582e9192f"><path d="M 50 21.402344 L 59 21.402344 L 59 49.828125 L 50 49.828125 Z M 50 21.402344 " clip-rule="nonzero"/></clipPath><clipPath id="6a0ce4afc0"><path d="M 66 21.402344 L 75 21.402344 L 75 49.828125 L 66 49.828125 Z M 66 21.402344 " clip-rule="nonzero"/></clipPath><clipPath id="b7be117e95"><path d="M 82 21.402344 L 91 21.402344 L 91 49.828125 L 82 49.828125 Z M 82 21.402344 " clip-rule="nonzero"/></clipPath><clipPath id="566e82a756"><path d="M 98 21.402344 L 106 21.402344 L 106 49.828125 L 98 49.828125 Z M 98 21.402344 " clip-rule="nonzero"/></clipPath><clipPath id="fab334be23"><path d="M 114 21.402344 L 122 21.402344 L 122 49.828125 L 114 49.828125 Z M 114 21.402344 " clip-rule="nonzero"/></clipPath><clipPath id="0d9af29986"><path d="M 130 21.402344 L 138 21.402344 L 138 49.828125 L 130 49.828125 Z M 130 21.402344 " clip-rule="nonzero"/></clipPath><clipPath id="b032b92202"><path d="M 146 21.402344 L 154 21.402344 L 154 49.828125 L 146 49.828125 Z M 146 21.402344 " clip-rule="nonzero"/></clipPath><clipPath id="5d66cf8099"><path d="M 161 21.402344 L 170 21.402344 L 170 49.828125 L 161 49.828125 Z M 161 21.402344 " clip-rule="nonzero"/></clipPath><clipPath id="c4875f3687"><rect x="0" width="153" y="0" height="20"/></clipPath></defs><g clip-path="url(#e032315290)"><path fill="#d9d9d9" d="M 18.886719 21.402344 L 26.417969 21.402344 L 26.417969 121.632812 L 18.886719 121.632812 Z M 18.886719 21.402344 " fill-opacity="1" fill-rule="nonzero"/></g><g clip-path="url(#b2acad65ac)"><path fill="#d9d9d9" d="M 34.789062 21.402344 L 42.320312 21.402344 L 42.320312 121.632812 L 34.789062 121.632812 Z M 34.789062 21.402344 " fill-opacity="1" fill-rule="nonzero"/></g><g clip-path="url(#e582e9192f)"><path fill="#d9d9d9" d="M 50.691406 21.402344 L 58.21875 21.402344 L 58.21875 121.632812 L 50.691406 121.632812 Z M 50.691406 21.402344 " fill-opacity="1" fill-rule="nonzero"/></g><g clip-path="url(#6a0ce4afc0)"><path fill="#d9d9d9" d="M 66.589844 21.402344 L 74.121094 21.402344 L 74.121094 121.632812 L 66.589844 121.632812 Z M 66.589844 21.402344 " fill-opacity="1" fill-rule="nonzero"/></g><g clip-path="url(#b7be117e95)"><path fill="#d9d9d9" d="M 82.492188 21.402344 L 90.019531 21.402344 L 90.019531 121.632812 L 82.492188 121.632812 Z M 82.492188 21.402344 " fill-opacity="1" fill-rule="nonzero"/></g><g clip-path="url(#566e82a756)"><path fill="#d9d9d9" d="M 98.390625 21.402344 L 105.921875 21.402344 L 105.921875 121.632812 L 98.390625 121.632812 Z M 98.390625 21.402344 " fill-opacity="1" fill-rule="nonzero"/></g><g clip-path="url(#fab334be23)"><path fill="#d9d9d9" d="M 114.292969 21.402344 L 121.824219 21.402344 L 121.824219 121.632812 L 114.292969 121.632812 Z M 114.292969 21.402344 " fill-opacity="1" fill-rule="nonzero"/></g><g clip-path="url(#0d9af29986)"><path fill="#d9d9d9" d="M 130.191406 21.402344 L 137.722656 21.402344 L 137.722656 121.632812 L 130.191406 121.632812 Z M 130.191406 21.402344 " fill-opacity="1" fill-rule="nonzero"/></g><g clip-path="url(#b032b92202)"><path fill="#d9d9d9" d="M 146.09375 21.402344 L 153.625 21.402344 L 153.625 121.632812 L 146.09375 121.632812 Z M 146.09375 21.402344 " fill-opacity="1" fill-rule="nonzero"/></g><g clip-path="url(#5d66cf8099)"><path fill="#d9d9d9" d="M 161.992188 21.402344 L 169.523438 21.402344 L 169.523438 121.632812 L 161.992188 121.632812 Z M 161.992188 21.402344 " fill-opacity="1" fill-rule="nonzero"/></g><g fill="#d93d3d" fill-opacity="1"><g transform="translate(15.774911, 50.194011)"><g><path d="M 7.765625 0.328125 C 6.378906 0.328125 5.179688 0.0976562 4.171875 -0.359375 C 3.171875 -0.816406 2.398438 -1.46875 1.859375 -2.3125 C 1.316406 -3.15625 1.046875 -4.144531 1.046875 -5.28125 L 4.734375 -5.28125 C 4.734375 -4.488281 5.003906 -3.867188 5.546875 -3.421875 C 6.097656 -2.984375 6.828125 -2.765625 7.734375 -2.765625 C 8.523438 -2.765625 9.148438 -2.914062 9.609375 -3.21875 C 10.066406 -3.53125 10.296875 -3.960938 10.296875 -4.515625 C 10.296875 -5.097656 10.019531 -5.570312 9.46875 -5.9375 C 8.914062 -6.300781 8.054688 -6.609375 6.890625 -6.859375 C 4.953125 -7.273438 3.515625 -7.898438 2.578125 -8.734375 C 1.648438 -9.566406 1.1875 -10.65625 1.1875 -12 C 1.1875 -13.519531 1.738281 -14.71875 2.84375 -15.59375 C 3.945312 -16.46875 5.453125 -16.90625 7.359375 -16.90625 C 8.671875 -16.90625 9.804688 -16.675781 10.765625 -16.21875 C 11.734375 -15.769531 12.476562 -15.140625 13 -14.328125 C 13.53125 -13.515625 13.796875 -12.550781 13.796875 -11.4375 L 10.171875 -11.4375 C 10.171875 -12.175781 9.925781 -12.757812 9.4375 -13.1875 C 8.957031 -13.613281 8.28125 -13.828125 7.40625 -13.828125 C 6.613281 -13.828125 5.988281 -13.671875 5.53125 -13.359375 C 5.082031 -13.054688 4.859375 -12.628906 4.859375 -12.078125 C 4.859375 -11.566406 5.109375 -11.140625 5.609375 -10.796875 C 6.117188 -10.453125 7.003906 -10.128906 8.265625 -9.828125 C 10.328125 -9.335938 11.816406 -8.679688 12.734375 -7.859375 C 13.648438 -7.035156 14.109375 -5.96875 14.109375 -4.65625 C 14.109375 -3.09375 13.539062 -1.867188 12.40625 -0.984375 C 11.28125 -0.109375 9.734375 0.328125 7.765625 0.328125 Z M 7.765625 0.328125 "/></g></g></g><g fill="#d93d3d" fill-opacity="1"><g transform="translate(29.501406, 50.194011)"><g><path d="M 0.21875 0 L 6.796875 -16.5625 L 10.484375 -16.5625 L 17.0625 0 L 13.046875 0 L 11.9375 -2.859375 L 5.34375 -2.859375 L 4.234375 0 Z M 6.328125 -5.828125 L 10.984375 -5.828125 L 8.640625 -11.890625 Z M 6.328125 -5.828125 "/></g></g></g><g fill="#d93d3d" fill-opacity="1"><g transform="translate(45.949818, 50.194011)"><g><path d="M 1.984375 0 L 1.984375 -16.5625 L 12.375 -16.5625 L 12.375 -13.15625 L 5.75 -13.15625 L 5.75 -9.015625 L 11.765625 -9.015625 L 11.765625 -5.703125 L 5.75 -5.703125 L 5.75 0 Z M 1.984375 0 "/></g></g></g><g fill="#d93d3d" fill-opacity="1"><g transform="translate(58.540472, 50.194011)"><g><path d="M 1.984375 0 L 1.984375 -16.5625 L 12.875 -16.5625 L 12.875 -13.390625 L 5.734375 -13.390625 L 5.734375 -9.96875 L 12.234375 -9.96875 L 12.234375 -6.8125 L 5.734375 -6.8125 L 5.734375 -3.203125 L 13.140625 -3.203125 L 13.140625 0 Z M 1.984375 0 "/></g></g></g><g fill="#d93d3d" fill-opacity="1"><g transform="translate(72.054148, 50.194011)"><g/></g></g><g fill="#d93d3d" fill-opacity="1"><g transform="translate(76.40848, 50.194011)"><g><path d="M 7.765625 0.328125 C 6.378906 0.328125 5.179688 0.0976562 4.171875 -0.359375 C 3.171875 -0.816406 2.398438 -1.46875 1.859375 -2.3125 C 1.316406 -3.15625 1.046875 -4.144531 1.046875 -5.28125 L 4.734375 -5.28125 C 4.734375 -4.488281 5.003906 -3.867188 5.546875 -3.421875 C 6.097656 -2.984375 6.828125 -2.765625 7.734375 -2.765625 C 8.523438 -2.765625 9.148438 -2.914062 9.609375 -3.21875 C 10.066406 -3.53125 10.296875 -3.960938 10.296875 -4.515625 C 10.296875 -5.097656 10.019531 -5.570312 9.46875 -5.9375 C 8.914062 -6.300781 8.054688 -6.609375 6.890625 -6.859375 C 4.953125 -7.273438 3.515625 -7.898438 2.578125 -8.734375 C 1.648438 -9.566406 1.1875 -10.65625 1.1875 -12 C 1.1875 -13.519531 1.738281 -14.71875 2.84375 -15.59375 C 3.945312 -16.46875 5.453125 -16.90625 7.359375 -16.90625 C 8.671875 -16.90625 9.804688 -16.675781 10.765625 -16.21875 C 11.734375 -15.769531 12.476562 -15.140625 13 -14.328125 C 13.53125 -13.515625 13.796875 -12.550781 13.796875 -11.4375 L 10.171875 -11.4375 C 10.171875 -12.175781 9.925781 -12.757812 9.4375 -13.1875 C 8.957031 -13.613281 8.28125 -13.828125 7.40625 -13.828125 C 6.613281 -13.828125 5.988281 -13.671875 5.53125 -13.359375 C 5.082031 -13.054688 4.859375 -12.628906 4.859375 -12.078125 C 4.859375 -11.566406 5.109375 -11.140625 5.609375 -10.796875 C 6.117188 -10.453125 7.003906 -10.128906 8.265625 -9.828125 C 10.328125 -9.335938 11.816406 -8.679688 12.734375 -7.859375 C 13.648438 -7.035156 14.109375 -5.96875 14.109375 -4.65625 C 14.109375 -3.09375 13.539062 -1.867188 12.40625 -0.984375 C 11.28125 -0.109375 9.734375 0.328125 7.765625 0.328125 Z M 7.765625 0.328125 "/></g></g></g><g fill="#d93d3d" fill-opacity="1"><g transform="translate(89.96926, 50.194011)"><g><path d="M 5.96875 0 L 5.96875 -13.046875 L 0.703125 -13.046875 L 0.703125 -16.5625 L 14.984375 -16.5625 L 14.984375 -13.046875 L 9.734375 -13.046875 L 9.734375 0 Z M 5.96875 0 "/></g></g></g><g fill="#d93d3d" fill-opacity="1"><g transform="translate(104.831974, 50.194011)"><g><path d="M 1.984375 0 L 1.984375 -16.5625 L 9.0625 -16.5625 C 10.320312 -16.5625 11.414062 -16.332031 12.34375 -15.875 C 13.28125 -15.425781 14 -14.773438 14.5 -13.921875 C 15.007812 -13.066406 15.265625 -12.046875 15.265625 -10.859375 C 15.265625 -9.648438 14.988281 -8.609375 14.4375 -7.734375 C 13.882812 -6.859375 13.113281 -6.195312 12.125 -5.75 L 15.546875 0 L 11.203125 0 L 8.234375 -5.15625 L 5.75 -5.15625 L 5.75 0 Z M 5.703125 -8.328125 L 8.5625 -8.328125 C 9.5 -8.328125 10.210938 -8.546875 10.703125 -8.984375 C 11.203125 -9.421875 11.453125 -10.039062 11.453125 -10.84375 C 11.453125 -11.644531 11.203125 -12.257812 10.703125 -12.6875 C 10.210938 -13.125 9.5 -13.34375 8.5625 -13.34375 L 5.703125 -13.34375 Z M 5.703125 -8.328125 "/></g></g></g><g fill="#d93d3d" fill-opacity="1"><g transform="translate(120.665041, 50.194011)"><g><path d="M 1.984375 0 L 1.984375 -16.5625 L 12.875 -16.5625 L 12.875 -13.390625 L 5.734375 -13.390625 L 5.734375 -9.96875 L 12.234375 -9.96875 L 12.234375 -6.8125 L 5.734375 -6.8125 L 5.734375 -3.203125 L 13.140625 -3.203125 L 13.140625 0 Z M 1.984375 0 "/></g></g></g><g fill="#d93d3d" fill-opacity="1"><g transform="translate(134.178717, 50.194011)"><g><path d="M 1.984375 0 L 1.984375 -16.5625 L 12.875 -16.5625 L 12.875 -13.390625 L 5.734375 -13.390625 L 5.734375 -9.96875 L 12.234375 -9.96875 L 12.234375 -6.8125 L 5.734375 -6.8125 L 5.734375 -3.203125 L 13.140625 -3.203125 L 13.140625 0 Z M 1.984375 0 "/></g></g></g><g fill="#d93d3d" fill-opacity="1"><g transform="translate(147.692393, 50.194011)"><g><path d="M 5.96875 0 L 5.96875 -13.046875 L 0.703125 -13.046875 L 0.703125 -16.5625 L 14.984375 -16.5625 L 14.984375 -13.046875 L 9.734375 -13.046875 L 9.734375 0 Z M 5.96875 0 "/></g></g></g><g fill="#d93d3d" fill-opacity="1"><g transform="translate(162.034267, 50.194011)"><g><path d="M 7.765625 0.328125 C 6.378906 0.328125 5.179688 0.0976562 4.171875 -0.359375 C 3.171875 -0.816406 2.398438 -1.46875 1.859375 -2.3125 C 1.316406 -3.15625 1.046875 -4.144531 1.046875 -5.28125 L 4.734375 -5.28125 C 4.734375 -4.488281 5.003906 -3.867188 5.546875 -3.421875 C 6.097656 -2.984375 6.828125 -2.765625 7.734375 -2.765625 C 8.523438 -2.765625 9.148438 -2.914062 9.609375 -3.21875 C 10.066406 -3.53125 10.296875 -3.960938 10.296875 -4.515625 C 10.296875 -5.097656 10.019531 -5.570312 9.46875 -5.9375 C 8.914062 -6.300781 8.054688 -6.609375 6.890625 -6.859375 C 4.953125 -7.273438 3.515625 -7.898438 2.578125 -8.734375 C 1.648438 -9.566406 1.1875 -10.65625 1.1875 -12 C 1.1875 -13.519531 1.738281 -14.71875 2.84375 -15.59375 C 3.945312 -16.46875 5.453125 -16.90625 7.359375 -16.90625 C 8.671875 -16.90625 9.804688 -16.675781 10.765625 -16.21875 C 11.734375 -15.769531 12.476562 -15.140625 13 -14.328125 C 13.53125 -13.515625 13.796875 -12.550781 13.796875 -11.4375 L 10.171875 -11.4375 C 10.171875 -12.175781 9.925781 -12.757812 9.4375 -13.1875 C 8.957031 -13.613281 8.28125 -13.828125 7.40625 -13.828125 C 6.613281 -13.828125 5.988281 -13.671875 5.53125 -13.359375 C 5.082031 -13.054688 4.859375 -12.628906 4.859375 -12.078125 C 4.859375 -11.566406 5.109375 -11.140625 5.609375 -10.796875 C 6.117188 -10.453125 7.003906 -10.128906 8.265625 -9.828125 C 10.328125 -9.335938 11.816406 -8.679688 12.734375 -7.859375 C 13.648438 -7.035156 14.109375 -5.96875 14.109375 -4.65625 C 14.109375 -3.09375 13.539062 -1.867188 12.40625 -0.984375 C 11.28125 -0.109375 9.734375 0.328125 7.765625 0.328125 Z M 7.765625 0.328125 "/></g></g></g><g transform="matrix(1, 0, 0, 1, 18, 16)"><g clip-path="url(#c4875f3687)"><g fill="#363636" fill-opacity="1"><g transform="translate(1.08587, 13.899388)"><g><path d="M 2.46875 0 L 1.359375 -8.921875 L 2.484375 -8.921875 L 2.9375 -5.078125 L 3.328125 -1.796875 L 7.40625 -8.921875 L 8.453125 -8.921875 L 9.109375 -5.078125 L 9.671875 -1.796875 L 11.375 -5.078125 L 13.390625 -8.921875 L 14.625 -8.921875 L 9.9375 0 L 8.90625 0 L 8.34375 -3.25 L 7.65625 -7.21875 L 5.40625 -3.21875 L 3.53125 0 Z M 2.46875 0 "/></g></g></g><g fill="#363636" fill-opacity="1"><g transform="translate(16.790995, 13.899388)"><g><path d="M 0.640625 0 L 2.421875 -8.921875 L 3.5625 -8.921875 L 1.78125 0 Z M 0.640625 0 "/></g></g></g><g fill="#363636" fill-opacity="1"><g transform="translate(22.502126, 13.899388)"><g><path d="M 0.640625 0 L 2.421875 -8.921875 L 3.46875 -8.921875 L 6.96875 -1.84375 L 7.34375 -3.78125 L 8.375 -8.921875 L 9.515625 -8.921875 L 7.71875 0 L 6.6875 0 L 3.203125 -7.0625 L 2.890625 -5.546875 L 1.78125 0 Z M 0.640625 0 "/></g></g></g><g fill="#363636" fill-opacity="1"><g transform="translate(34.153566, 13.899388)"><g><path d="M 0.640625 0 L 2.421875 -8.921875 L 5.453125 -8.921875 C 6.359375 -8.921875 7.117188 -8.722656 7.734375 -8.328125 C 8.359375 -7.941406 8.800781 -7.40625 9.0625 -6.71875 C 9.320312 -6.03125 9.363281 -5.238281 9.1875 -4.34375 C 9.019531 -3.488281 8.675781 -2.734375 8.15625 -2.078125 C 7.644531 -1.421875 7.007812 -0.910156 6.25 -0.546875 C 5.5 -0.179688 4.671875 0 3.765625 0 Z M 2 -1.078125 L 3.84375 -1.078125 C 4.539062 -1.078125 5.179688 -1.222656 5.765625 -1.515625 C 6.347656 -1.804688 6.835938 -2.210938 7.234375 -2.734375 C 7.640625 -3.253906 7.910156 -3.851562 8.046875 -4.53125 C 8.179688 -5.207031 8.160156 -5.789062 7.984375 -6.28125 C 7.804688 -6.78125 7.488281 -7.164062 7.03125 -7.4375 C 6.582031 -7.71875 6.019531 -7.859375 5.34375 -7.859375 L 3.359375 -7.859375 Z M 2 -1.078125 "/></g></g></g><g fill="#363636" fill-opacity="1"><g transform="translate(45.830497, 13.899388)"><g><path d="M 3.65625 0.171875 C 2.957031 0.171875 2.363281 0.0507812 1.875 -0.1875 C 1.382812 -0.425781 1.03125 -0.765625 0.8125 -1.203125 C 0.601562 -1.640625 0.550781 -2.15625 0.65625 -2.75 L 1.78125 -2.75 C 1.6875 -2.1875 1.804688 -1.738281 2.140625 -1.40625 C 2.472656 -1.070312 2.992188 -0.90625 3.703125 -0.90625 C 4.378906 -0.90625 4.925781 -1.035156 5.34375 -1.296875 C 5.757812 -1.554688 6.003906 -1.875 6.078125 -2.25 C 6.160156 -2.664062 6.070312 -3.003906 5.8125 -3.265625 C 5.5625 -3.535156 5.046875 -3.769531 4.265625 -3.96875 C 3.179688 -4.25 2.421875 -4.601562 1.984375 -5.03125 C 1.554688 -5.46875 1.414062 -6.066406 1.5625 -6.828125 C 1.65625 -7.285156 1.851562 -7.679688 2.15625 -8.015625 C 2.46875 -8.347656 2.867188 -8.609375 3.359375 -8.796875 C 3.847656 -8.992188 4.40625 -9.09375 5.03125 -9.09375 C 6.070312 -9.09375 6.847656 -8.835938 7.359375 -8.328125 C 7.867188 -7.828125 8.050781 -7.144531 7.90625 -6.28125 L 6.765625 -6.28125 C 6.867188 -6.832031 6.765625 -7.257812 6.453125 -7.5625 C 6.148438 -7.863281 5.648438 -8.015625 4.953125 -8.015625 C 4.347656 -8.015625 3.835938 -7.882812 3.421875 -7.625 C 3.015625 -7.375 2.78125 -7.0625 2.71875 -6.6875 C 2.632812 -6.257812 2.726562 -5.914062 3 -5.65625 C 3.269531 -5.40625 3.804688 -5.1875 4.609375 -5 C 5.660156 -4.738281 6.394531 -4.375 6.8125 -3.90625 C 7.238281 -3.445312 7.378906 -2.863281 7.234375 -2.15625 C 7.097656 -1.457031 6.71875 -0.894531 6.09375 -0.46875 C 5.476562 -0.0390625 4.664062 0.171875 3.65625 0.171875 Z M 3.65625 0.171875 "/></g></g></g><g fill="#363636" fill-opacity="1"><g transform="translate(56.028729, 13.899388)"><g><path d="M 4.75 0.171875 C 3.820312 0.171875 3.046875 -0.03125 2.421875 -0.4375 C 1.796875 -0.84375 1.351562 -1.394531 1.09375 -2.09375 C 0.84375 -2.800781 0.804688 -3.613281 0.984375 -4.53125 C 1.160156 -5.4375 1.507812 -6.226562 2.03125 -6.90625 C 2.550781 -7.59375 3.191406 -8.128906 3.953125 -8.515625 C 4.710938 -8.898438 5.535156 -9.09375 6.421875 -9.09375 C 7.347656 -9.09375 8.125 -8.890625 8.75 -8.484375 C 9.375 -8.078125 9.816406 -7.519531 10.078125 -6.8125 C 10.347656 -6.113281 10.390625 -5.304688 10.203125 -4.390625 C 10.023438 -3.484375 9.675781 -2.6875 9.15625 -2 C 8.632812 -1.320312 7.992188 -0.789062 7.234375 -0.40625 C 6.472656 -0.0195312 5.644531 0.171875 4.75 0.171875 Z M 2.109375 -4.390625 C 1.972656 -3.703125 1.992188 -3.097656 2.171875 -2.578125 C 2.359375 -2.066406 2.675781 -1.664062 3.125 -1.375 C 3.570312 -1.09375 4.132812 -0.953125 4.8125 -0.953125 C 5.507812 -0.953125 6.148438 -1.101562 6.734375 -1.40625 C 7.328125 -1.71875 7.828125 -2.144531 8.234375 -2.6875 C 8.640625 -3.226562 8.910156 -3.84375 9.046875 -4.53125 C 9.191406 -5.226562 9.171875 -5.832031 8.984375 -6.34375 C 8.804688 -6.851562 8.492188 -7.25 8.046875 -7.53125 C 7.597656 -7.820312 7.039062 -7.96875 6.375 -7.96875 C 5.675781 -7.96875 5.03125 -7.8125 4.4375 -7.5 C 3.84375 -7.195312 3.34375 -6.773438 2.9375 -6.234375 C 2.53125 -5.703125 2.253906 -5.085938 2.109375 -4.390625 Z M 2.109375 -4.390625 "/></g></g></g><g fill="#363636" fill-opacity="1"><g transform="translate(68.69996, 13.899388)"><g><path d="M 0.640625 0 L 2.421875 -8.921875 L 5.671875 -8.921875 C 6.328125 -8.921875 6.867188 -8.796875 7.296875 -8.546875 C 7.734375 -8.304688 8.039062 -7.960938 8.21875 -7.515625 C 8.394531 -7.078125 8.425781 -6.566406 8.3125 -5.984375 C 8.175781 -5.285156 7.875 -4.703125 7.40625 -4.234375 C 6.945312 -3.773438 6.363281 -3.46875 5.65625 -3.3125 L 7.234375 0 L 6.015625 0 L 4.484375 -3.203125 L 2.421875 -3.203125 L 1.78125 0 Z M 2.640625 -4.265625 L 4.609375 -4.265625 C 5.347656 -4.265625 5.929688 -4.425781 6.359375 -4.75 C 6.785156 -5.082031 7.054688 -5.535156 7.171875 -6.109375 C 7.285156 -6.648438 7.203125 -7.078125 6.921875 -7.390625 C 6.648438 -7.703125 6.148438 -7.859375 5.421875 -7.859375 L 3.359375 -7.859375 Z M 2.640625 -4.265625 "/></g></g></g><g fill="#363636" fill-opacity="1"><g transform="translate(79.331609, 13.899388)"><g><path d="M 0.640625 0 L 2.421875 -8.921875 L 3.5625 -8.921875 L 1.78125 0 Z M 0.640625 0 "/></g></g></g><g fill="#363636" fill-opacity="1"><g transform="translate(85.042737, 13.899388)"><g><path d="M 2.78125 0 L 4.34375 -7.859375 L 1.34375 -7.859375 L 1.5625 -8.921875 L 8.71875 -8.921875 L 8.5 -7.859375 L 5.484375 -7.859375 L 3.921875 0 Z M 2.78125 0 "/></g></g></g><g fill="#363636" fill-opacity="1"><g transform="translate(95.037012, 13.899388)"><g><path d="M 0.640625 0 L 2.421875 -8.921875 L 7.84375 -8.921875 L 7.640625 -7.875 L 3.359375 -7.875 L 2.796875 -5.0625 L 6.75 -5.0625 L 6.546875 -4.03125 L 2.59375 -4.03125 L 2 -1.046875 L 6.40625 -1.046875 L 6.203125 0 Z M 0.640625 0 "/></g></g></g><g fill="#363636" fill-opacity="1"><g transform="translate(104.572365, 13.899388)"><g><path d="M 3.65625 0.171875 C 2.957031 0.171875 2.363281 0.0507812 1.875 -0.1875 C 1.382812 -0.425781 1.03125 -0.765625 0.8125 -1.203125 C 0.601562 -1.640625 0.550781 -2.15625 0.65625 -2.75 L 1.78125 -2.75 C 1.6875 -2.1875 1.804688 -1.738281 2.140625 -1.40625 C 2.472656 -1.070312 2.992188 -0.90625 3.703125 -0.90625 C 4.378906 -0.90625 4.925781 -1.035156 5.34375 -1.296875 C 5.757812 -1.554688 6.003906 -1.875 6.078125 -2.25 C 6.160156 -2.664062 6.070312 -3.003906 5.8125 -3.265625 C 5.5625 -3.535156 5.046875 -3.769531 4.265625 -3.96875 C 3.179688 -4.25 2.421875 -4.601562 1.984375 -5.03125 C 1.554688 -5.46875 1.414062 -6.066406 1.5625 -6.828125 C 1.65625 -7.285156 1.851562 -7.679688 2.15625 -8.015625 C 2.46875 -8.347656 2.867188 -8.609375 3.359375 -8.796875 C 3.847656 -8.992188 4.40625 -9.09375 5.03125 -9.09375 C 6.070312 -9.09375 6.847656 -8.835938 7.359375 -8.328125 C 7.867188 -7.828125 8.050781 -7.144531 7.90625 -6.28125 L 6.765625 -6.28125 C 6.867188 -6.832031 6.765625 -7.257812 6.453125 -7.5625 C 6.148438 -7.863281 5.648438 -8.015625 4.953125 -8.015625 C 4.347656 -8.015625 3.835938 -7.882812 3.421875 -7.625 C 3.015625 -7.375 2.78125 -7.0625 2.71875 -6.6875 C 2.632812 -6.257812 2.726562 -5.914062 3 -5.65625 C 3.269531 -5.40625 3.804688 -5.1875 4.609375 -5 C 5.660156 -4.738281 6.394531 -4.375 6.8125 -3.90625 C 7.238281 -3.445312 7.378906 -2.863281 7.234375 -2.15625 C 7.097656 -1.457031 6.71875 -0.894531 6.09375 -0.46875 C 5.476562 -0.0390625 4.664062 0.171875 3.65625 0.171875 Z M 3.65625 0.171875 "/></g></g></g><g fill="#363636" fill-opacity="1"><g transform="translate(114.541133, 13.899388)"><g/></g></g><g fill="#363636" fill-opacity="1"><g transform="translate(119.665881, 13.899388)"><g><path d="M 0.640625 0 L 2.421875 -8.921875 L 7.53125 -8.921875 L 7.328125 -7.875 L 3.359375 -7.875 L 2.734375 -4.796875 L 6.390625 -4.796875 L 6.1875 -3.765625 L 2.53125 -3.765625 L 1.78125 0 Z M 0.640625 0 "/></g></g></g><g fill="#363636" fill-opacity="1"><g transform="translate(128.614848, 13.899388)"><g><path d="M 4.75 0.171875 C 3.820312 0.171875 3.046875 -0.03125 2.421875 -0.4375 C 1.796875 -0.84375 1.351562 -1.394531 1.09375 -2.09375 C 0.84375 -2.800781 0.804688 -3.613281 0.984375 -4.53125 C 1.160156 -5.4375 1.507812 -6.226562 2.03125 -6.90625 C 2.550781 -7.59375 3.191406 -8.128906 3.953125 -8.515625 C 4.710938 -8.898438 5.535156 -9.09375 6.421875 -9.09375 C 7.347656 -9.09375 8.125 -8.890625 8.75 -8.484375 C 9.375 -8.078125 9.816406 -7.519531 10.078125 -6.8125 C 10.347656 -6.113281 10.390625 -5.304688 10.203125 -4.390625 C 10.023438 -3.484375 9.675781 -2.6875 9.15625 -2 C 8.632812 -1.320312 7.992188 -0.789062 7.234375 -0.40625 C 6.472656 -0.0195312 5.644531 0.171875 4.75 0.171875 Z M 2.109375 -4.390625 C 1.972656 -3.703125 1.992188 -3.097656 2.171875 -2.578125 C 2.359375 -2.066406 2.675781 -1.664062 3.125 -1.375 C 3.570312 -1.09375 4.132812 -0.953125 4.8125 -0.953125 C 5.507812 -0.953125 6.148438 -1.101562 6.734375 -1.40625 C 7.328125 -1.71875 7.828125 -2.144531 8.234375 -2.6875 C 8.640625 -3.226562 8.910156 -3.84375 9.046875 -4.53125 C 9.191406 -5.226562 9.171875 -5.832031 8.984375 -6.34375 C 8.804688 -6.851562 8.492188 -7.25 8.046875 -7.53125 C 7.597656 -7.820312 7.039062 -7.96875 6.375 -7.96875 C 5.675781 -7.96875 5.03125 -7.8125 4.4375 -7.5 C 3.84375 -7.195312 3.34375 -6.773438 2.9375 -6.234375 C 2.53125 -5.703125 2.253906 -5.085938 2.109375 -4.390625 Z M 2.109375 -4.390625 "/></g></g></g><g fill="#363636" fill-opacity="1"><g transform="translate(141.286079, 13.899388)"><g><path d="M 0.640625 0 L 2.421875 -8.921875 L 5.671875 -8.921875 C 6.328125 -8.921875 6.867188 -8.796875 7.296875 -8.546875 C 7.734375 -8.304688 8.039062 -7.960938 8.21875 -7.515625 C 8.394531 -7.078125 8.425781 -6.566406 8.3125 -5.984375 C 8.175781 -5.285156 7.875 -4.703125 7.40625 -4.234375 C 6.945312 -3.773438 6.363281 -3.46875 5.65625 -3.3125 L 7.234375 0 L 6.015625 0 L 4.484375 -3.203125 L 2.421875 -3.203125 L 1.78125 0 Z M 2.640625 -4.265625 L 4.609375 -4.265625 C 5.347656 -4.265625 5.929688 -4.425781 6.359375 -4.75 C 6.785156 -5.082031 7.054688 -5.535156 7.171875 -6.109375 C 7.285156 -6.648438 7.203125 -7.078125 6.921875 -7.390625 C 6.648438 -7.703125 6.148438 -7.859375 5.421875 -7.859375 L 3.359375 -7.859375 Z M 2.640625 -4.265625 "/></g></g></g></g></g></svg>