<svg xmlns="http://www.w3.org/2000/svg" xmlns:xlink="http://www.w3.org/1999/xlink" width="2000" zoomAndPan="magnify" viewBox="0 0 1500 1499.999933" height="2000" preserveAspectRatio="xMidYMid meet" version="1.0"><defs><g/><clipPath id="ea2d25c919"><path d="M 253 675.035156 L 294 675.035156 L 294 940.535156 L 253 940.535156 Z M 253 675.035156 " clip-rule="nonzero"/></clipPath><clipPath id="1d7ba10082"><path d="M 339 675.035156 L 380 675.035156 L 380 940.535156 L 339 940.535156 Z M 339 675.035156 " clip-rule="nonzero"/></clipPath><clipPath id="54ccd96842"><path d="M 424 675.035156 L 466 675.035156 L 466 940.535156 L 424 940.535156 Z M 424 675.035156 " clip-rule="nonzero"/></clipPath><clipPath id="ba76981051"><path d="M 510 675.035156 L 552 675.035156 L 552 940.535156 L 510 940.535156 Z M 510 675.035156 " clip-rule="nonzero"/></clipPath><clipPath id="927357b4d4"><path d="M 596 675.035156 L 638 675.035156 L 638 940.535156 L 596 940.535156 Z M 596 675.035156 " clip-rule="nonzero"/></clipPath><clipPath id="455402fc7d"><path d="M 682 675.035156 L 724 675.035156 L 724 940.535156 L 682 940.535156 Z M 682 675.035156 " clip-rule="nonzero"/></clipPath><clipPath id="4b1de19ed1"><path d="M 768 675.035156 L 810 675.035156 L 810 940.535156 L 768 940.535156 Z M 768 675.035156 " clip-rule="nonzero"/></clipPath><clipPath id="f87a538d0a"><path d="M 854 675.035156 L 896 675.035156 L 896 940.535156 L 854 940.535156 Z M 854 675.035156 " clip-rule="nonzero"/></clipPath><clipPath id="38b9b3cdbd"><path d="M 940 675.035156 L 982 675.035156 L 982 940.535156 L 940 940.535156 Z M 940 675.035156 " clip-rule="nonzero"/></clipPath><clipPath id="6c0fdecf15"><path d="M 1026 675.035156 L 1068 675.035156 L 1068 940.535156 L 1026 940.535156 Z M 1026 675.035156 " clip-rule="nonzero"/></clipPath><clipPath id="2e0fae0afc"><path d="M 1112 675.035156 L 1153 675.035156 L 1153 940.535156 L 1112 940.535156 Z M 1112 675.035156 " clip-rule="nonzero"/></clipPath><clipPath id="d2908d0ed6"><path d="M 1198 675.035156 L 1239 675.035156 L 1239 940.535156 L 1198 940.535156 Z M 1198 675.035156 " clip-rule="nonzero"/></clipPath><clipPath id="1bbb982a70"><rect x="0" width="1011" y="0" height="207"/></clipPath><clipPath id="ce399f21a2"><rect x="0" width="904" y="0" height="112"/></clipPath></defs><g clip-path="url(#ea2d25c919)"><path fill="#d9d9d9" d="M 253.085938 675.023438 L 293.777344 675.023438 L 293.777344 1215.015625 L 253.085938 1215.015625 Z M 253.085938 675.023438 " fill-opacity="1" fill-rule="nonzero"/></g><g clip-path="url(#1d7ba10082)"><path fill="#d9d9d9" d="M 339.007812 675.023438 L 379.699219 675.023438 L 379.699219 1215.015625 L 339.007812 1215.015625 Z M 339.007812 675.023438 " fill-opacity="1" fill-rule="nonzero"/></g><g clip-path="url(#54ccd96842)"><path fill="#d9d9d9" d="M 424.929688 675.023438 L 465.621094 675.023438 L 465.621094 1215.015625 L 424.929688 1215.015625 Z M 424.929688 675.023438 " fill-opacity="1" fill-rule="nonzero"/></g><g clip-path="url(#ba76981051)"><path fill="#d9d9d9" d="M 510.851562 675.023438 L 551.542969 675.023438 L 551.542969 1215.015625 L 510.851562 1215.015625 Z M 510.851562 675.023438 " fill-opacity="1" fill-rule="nonzero"/></g><g clip-path="url(#927357b4d4)"><path fill="#d9d9d9" d="M 596.773438 675.023438 L 637.464844 675.023438 L 637.464844 1215.015625 L 596.773438 1215.015625 Z M 596.773438 675.023438 " fill-opacity="1" fill-rule="nonzero"/></g><g clip-path="url(#455402fc7d)"><path fill="#d9d9d9" d="M 682.691406 675.023438 L 723.382812 675.023438 L 723.382812 1215.015625 L 682.691406 1215.015625 Z M 682.691406 675.023438 " fill-opacity="1" fill-rule="nonzero"/></g><g clip-path="url(#4b1de19ed1)"><path fill="#d9d9d9" d="M 768.613281 675.023438 L 809.304688 675.023438 L 809.304688 1215.015625 L 768.613281 1215.015625 Z M 768.613281 675.023438 " fill-opacity="1" fill-rule="nonzero"/></g><g clip-path="url(#f87a538d0a)"><path fill="#d9d9d9" d="M 854.535156 675.023438 L 895.226562 675.023438 L 895.226562 1215.015625 L 854.535156 1215.015625 Z M 854.535156 675.023438 " fill-opacity="1" fill-rule="nonzero"/></g><g clip-path="url(#38b9b3cdbd)"><path fill="#d9d9d9" d="M 940.457031 675.023438 L 981.148438 675.023438 L 981.148438 1215.015625 L 940.457031 1215.015625 Z M 940.457031 675.023438 " fill-opacity="1" fill-rule="nonzero"/></g><g clip-path="url(#6c0fdecf15)"><path fill="#d9d9d9" d="M 1026.378906 675.023438 L 1067.070312 675.023438 L 1067.070312 1215.015625 L 1026.378906 1215.015625 Z M 1026.378906 675.023438 " fill-opacity="1" fill-rule="nonzero"/></g><g clip-path="url(#2e0fae0afc)"><path fill="#d9d9d9" d="M 1112.296875 675.023438 L 1152.988281 675.023438 L 1152.988281 1215.015625 L 1112.296875 1215.015625 Z M 1112.296875 675.023438 " fill-opacity="1" fill-rule="nonzero"/></g><g clip-path="url(#d2908d0ed6)"><path fill="#d9d9d9" d="M 1198.21875 675.023438 L 1238.910156 675.023438 L 1238.910156 1215.015625 L 1198.21875 1215.015625 Z M 1198.21875 675.023438 " fill-opacity="1" fill-rule="nonzero"/></g><g transform="matrix(1, 0, 0, 1, 244, 621)"><g clip-path="url(#1bbb982a70)"><g fill="#d93d3d" fill-opacity="1"><g transform="translate(1.46624, 152.101818)"><g><path d="M 46.421875 1.984375 C 38.117188 1.984375 30.972656 0.613281 24.984375 -2.125 C 18.992188 -4.863281 14.367188 -8.753906 11.109375 -13.796875 C 7.859375 -18.847656 6.234375 -24.769531 6.234375 -31.5625 L 28.3125 -31.5625 C 28.3125 -26.84375 29.9375 -23.160156 33.1875 -20.515625 C 36.445312 -17.878906 40.8125 -16.5625 46.28125 -16.5625 C 51 -16.5625 54.726562 -17.476562 57.46875 -19.3125 C 60.207031 -21.15625 61.578125 -23.726562 61.578125 -27.03125 C 61.578125 -30.519531 59.925781 -33.347656 56.625 -35.515625 C 53.320312 -37.691406 48.175781 -39.535156 41.1875 -41.046875 C 29.582031 -43.503906 20.992188 -47.234375 15.421875 -52.234375 C 9.859375 -57.234375 7.078125 -63.742188 7.078125 -71.765625 C 7.078125 -80.828125 10.378906 -87.972656 16.984375 -93.203125 C 23.585938 -98.441406 32.597656 -101.0625 44.015625 -101.0625 C 51.847656 -101.0625 58.640625 -99.71875 64.390625 -97.03125 C 70.148438 -94.34375 74.609375 -90.566406 77.765625 -85.703125 C 80.929688 -80.847656 82.515625 -75.066406 82.515625 -68.359375 L 60.859375 -68.359375 C 60.859375 -72.796875 59.394531 -76.285156 56.46875 -78.828125 C 53.550781 -81.378906 49.492188 -82.65625 44.296875 -82.65625 C 39.585938 -82.65625 35.863281 -81.734375 33.125 -79.890625 C 30.382812 -78.054688 29.015625 -75.488281 29.015625 -72.1875 C 29.015625 -69.164062 30.523438 -66.617188 33.546875 -64.546875 C 36.566406 -62.472656 41.851562 -60.535156 49.40625 -58.734375 C 61.757812 -55.816406 70.671875 -51.90625 76.140625 -47 C 81.617188 -42.09375 84.359375 -35.722656 84.359375 -27.890625 C 84.359375 -18.546875 80.984375 -11.226562 74.234375 -5.9375 C 67.492188 -0.65625 58.222656 1.984375 46.421875 1.984375 Z M 46.421875 1.984375 "/></g></g></g><g fill="#d93d3d" fill-opacity="1"><g transform="translate(87.52384, 152.101818)"><g><path d="M 1.28125 0 L 40.625 -99.078125 L 62.703125 -99.078125 L 102.0625 0 L 78 0 L 71.34375 -17.125 L 31.984375 -17.125 L 25.34375 0 Z M 37.796875 -34.828125 L 65.671875 -34.828125 L 51.671875 -71.0625 Z M 37.796875 -34.828125 "/></g></g></g><g fill="#d93d3d" fill-opacity="1"><g transform="translate(189.858917, 152.101818)"><g><path d="M 11.890625 0 L 11.890625 -99.078125 L 74.03125 -99.078125 L 74.03125 -78.703125 L 34.390625 -78.703125 L 34.390625 -53.921875 L 70.34375 -53.921875 L 70.34375 -34.109375 L 34.390625 -34.109375 L 34.390625 0 Z M 11.890625 0 "/></g></g></g><g fill="#d93d3d" fill-opacity="1"><g transform="translate(269.122583, 152.101818)"><g><path d="M 11.890625 0 L 11.890625 -99.078125 L 77 -99.078125 L 77 -80.109375 L 34.25 -80.109375 L 34.25 -59.59375 L 73.1875 -59.59375 L 73.1875 -40.765625 L 34.25 -40.765625 L 34.25 -19.109375 L 78.5625 -19.109375 L 78.5625 0 Z M 11.890625 0 "/></g></g></g><g fill="#d93d3d" fill-opacity="1"><g transform="translate(353.906406, 152.101818)"><g/></g></g><g fill="#d93d3d" fill-opacity="1"><g transform="translate(383.913246, 152.101818)"><g><path d="M 46.421875 1.984375 C 38.117188 1.984375 30.972656 0.613281 24.984375 -2.125 C 18.992188 -4.863281 14.367188 -8.753906 11.109375 -13.796875 C 7.859375 -18.847656 6.234375 -24.769531 6.234375 -31.5625 L 28.3125 -31.5625 C 28.3125 -26.84375 29.9375 -23.160156 33.1875 -20.515625 C 36.445312 -17.878906 40.8125 -16.5625 46.28125 -16.5625 C 51 -16.5625 54.726562 -17.476562 57.46875 -19.3125 C 60.207031 -21.15625 61.578125 -23.726562 61.578125 -27.03125 C 61.578125 -30.519531 59.925781 -33.347656 56.625 -35.515625 C 53.320312 -37.691406 48.175781 -39.535156 41.1875 -41.046875 C 29.582031 -43.503906 20.992188 -47.234375 15.421875 -52.234375 C 9.859375 -57.234375 7.078125 -63.742188 7.078125 -71.765625 C 7.078125 -80.828125 10.378906 -87.972656 16.984375 -93.203125 C 23.585938 -98.441406 32.597656 -101.0625 44.015625 -101.0625 C 51.847656 -101.0625 58.640625 -99.71875 64.390625 -97.03125 C 70.148438 -94.34375 74.609375 -90.566406 77.765625 -85.703125 C 80.929688 -80.847656 82.515625 -75.066406 82.515625 -68.359375 L 60.859375 -68.359375 C 60.859375 -72.796875 59.394531 -76.285156 56.46875 -78.828125 C 53.550781 -81.378906 49.492188 -82.65625 44.296875 -82.65625 C 39.585938 -82.65625 35.863281 -81.734375 33.125 -79.890625 C 30.382812 -78.054688 29.015625 -75.488281 29.015625 -72.1875 C 29.015625 -69.164062 30.523438 -66.617188 33.546875 -64.546875 C 36.566406 -62.472656 41.851562 -60.535156 49.40625 -58.734375 C 61.757812 -55.816406 70.671875 -51.90625 76.140625 -47 C 81.617188 -42.09375 84.359375 -35.722656 84.359375 -27.890625 C 84.359375 -18.546875 80.984375 -11.226562 74.234375 -5.9375 C 67.492188 -0.65625 58.222656 1.984375 46.421875 1.984375 Z M 46.421875 1.984375 "/></g></g></g><g fill="#d93d3d" fill-opacity="1"><g transform="translate(468.980029, 152.101818)"><g><path d="M 35.671875 0 L 35.671875 -78 L 4.25 -78 L 4.25 -99.078125 L 89.59375 -99.078125 L 89.59375 -78 L 58.171875 -78 L 58.171875 0 Z M 35.671875 0 "/></g></g></g><g fill="#d93d3d" fill-opacity="1"><g transform="translate(561.83178, 152.101818)"><g><path d="M 11.890625 0 L 11.890625 -99.078125 L 54.21875 -99.078125 C 61.757812 -99.078125 68.3125 -97.707031 73.875 -94.96875 C 79.445312 -92.238281 83.742188 -88.328125 86.765625 -83.234375 C 89.785156 -78.140625 91.296875 -72.050781 91.296875 -64.96875 C 91.296875 -57.707031 89.644531 -51.457031 86.34375 -46.21875 C 83.039062 -40.976562 78.414062 -37.035156 72.46875 -34.390625 L 93 0 L 66.953125 0 L 49.265625 -30.859375 L 34.390625 -30.859375 L 34.390625 0 Z M 34.109375 -49.828125 L 51.234375 -49.828125 C 56.804688 -49.828125 61.078125 -51.125 64.046875 -53.71875 C 67.023438 -56.3125 68.515625 -60.015625 68.515625 -64.828125 C 68.515625 -69.640625 67.023438 -73.34375 64.046875 -75.9375 C 61.078125 -78.53125 56.804688 -79.828125 51.234375 -79.828125 L 34.109375 -79.828125 Z M 34.109375 -49.828125 "/></g></g></g><g fill="#d93d3d" fill-opacity="1"><g transform="translate(660.486743, 152.101818)"><g><path d="M 11.890625 0 L 11.890625 -99.078125 L 77 -99.078125 L 77 -80.109375 L 34.25 -80.109375 L 34.25 -59.59375 L 73.1875 -59.59375 L 73.1875 -40.765625 L 34.25 -40.765625 L 34.25 -19.109375 L 78.5625 -19.109375 L 78.5625 0 Z M 11.890625 0 "/></g></g></g><g fill="#d93d3d" fill-opacity="1"><g transform="translate(745.270598, 152.101818)"><g><path d="M 11.890625 0 L 11.890625 -99.078125 L 77 -99.078125 L 77 -80.109375 L 34.25 -80.109375 L 34.25 -59.59375 L 73.1875 -59.59375 L 73.1875 -40.765625 L 34.25 -40.765625 L 34.25 -19.109375 L 78.5625 -19.109375 L 78.5625 0 Z M 11.890625 0 "/></g></g></g><g fill="#d93d3d" fill-opacity="1"><g transform="translate(830.05439, 152.101818)"><g><path d="M 35.671875 0 L 35.671875 -78 L 4.25 -78 L 4.25 -99.078125 L 89.59375 -99.078125 L 89.59375 -78 L 58.171875 -78 L 58.171875 0 Z M 35.671875 0 "/></g></g></g><g fill="#d93d3d" fill-opacity="1"><g transform="translate(919.792104, 152.101818)"><g><path d="M 46.421875 1.984375 C 38.117188 1.984375 30.972656 0.613281 24.984375 -2.125 C 18.992188 -4.863281 14.367188 -8.753906 11.109375 -13.796875 C 7.859375 -18.847656 6.234375 -24.769531 6.234375 -31.5625 L 28.3125 -31.5625 C 28.3125 -26.84375 29.9375 -23.160156 33.1875 -20.515625 C 36.445312 -17.878906 40.8125 -16.5625 46.28125 -16.5625 C 51 -16.5625 54.726562 -17.476562 57.46875 -19.3125 C 60.207031 -21.15625 61.578125 -23.726562 61.578125 -27.03125 C 61.578125 -30.519531 59.925781 -33.347656 56.625 -35.515625 C 53.320312 -37.691406 48.175781 -39.535156 41.1875 -41.046875 C 29.582031 -43.503906 20.992188 -47.234375 15.421875 -52.234375 C 9.859375 -57.234375 7.078125 -63.742188 7.078125 -71.765625 C 7.078125 -80.828125 10.378906 -87.972656 16.984375 -93.203125 C 23.585938 -98.441406 32.597656 -101.0625 44.015625 -101.0625 C 51.847656 -101.0625 58.640625 -99.71875 64.390625 -97.03125 C 70.148438 -94.34375 74.609375 -90.566406 77.765625 -85.703125 C 80.929688 -80.847656 82.515625 -75.066406 82.515625 -68.359375 L 60.859375 -68.359375 C 60.859375 -72.796875 59.394531 -76.285156 56.46875 -78.828125 C 53.550781 -81.378906 49.492188 -82.65625 44.296875 -82.65625 C 39.585938 -82.65625 35.863281 -81.734375 33.125 -79.890625 C 30.382812 -78.054688 29.015625 -75.488281 29.015625 -72.1875 C 29.015625 -69.164062 30.523438 -66.617188 33.546875 -64.546875 C 36.566406 -62.472656 41.851562 -60.535156 49.40625 -58.734375 C 61.757812 -55.816406 70.671875 -51.90625 76.140625 -47 C 81.617188 -42.09375 84.359375 -35.722656 84.359375 -27.890625 C 84.359375 -18.546875 80.984375 -11.226562 74.234375 -5.9375 C 67.492188 -0.65625 58.222656 1.984375 46.421875 1.984375 Z M 46.421875 1.984375 "/></g></g></g></g></g><g transform="matrix(1, 0, 0, 1, 249, 583)"><g clip-path="url(#ce399f21a2)"><g fill="#363636" fill-opacity="1"><g transform="translate(0.875197, 81.794676)"><g><path d="M 14.78125 0 L 8.15625 -53.359375 L 14.859375 -53.359375 L 17.53125 -30.328125 L 19.890625 -10.75 L 44.28125 -53.359375 L 50.53125 -53.359375 L 54.421875 -30.328125 L 57.84375 -10.75 L 67.984375 -30.328125 L 80.03125 -53.359375 L 87.421875 -53.359375 L 59.375 0 L 53.203125 0 L 49.921875 -19.4375 L 45.8125 -43.140625 L 32.3125 -19.28125 L 21.109375 0 Z M 14.78125 0 "/></g></g></g><g fill="#363636" fill-opacity="1"><g transform="translate(94.767905, 81.794676)"><g><path d="M 3.8125 0 L 14.484375 -53.359375 L 21.34375 -53.359375 L 10.671875 0 Z M 3.8125 0 "/></g></g></g><g fill="#363636" fill-opacity="1"><g transform="translate(128.911763, 81.794676)"><g><path d="M 3.8125 0 L 14.484375 -53.359375 L 20.734375 -53.359375 L 41.609375 -10.96875 L 43.90625 -22.5625 L 50.078125 -53.359375 L 56.859375 -53.359375 L 46.1875 0 L 40.015625 0 L 19.125 -42.21875 L 17.296875 -33.15625 L 10.671875 0 Z M 3.8125 0 "/></g></g></g><g fill="#363636" fill-opacity="1"><g transform="translate(198.569611, 81.794676)"><g><path d="M 3.8125 0 L 14.484375 -53.359375 L 32.625 -53.359375 C 38.007812 -53.359375 42.554688 -52.1875 46.265625 -49.84375 C 49.972656 -47.507812 52.601562 -44.285156 54.15625 -40.171875 C 55.707031 -36.054688 55.945312 -31.328125 54.875 -25.984375 C 53.90625 -20.859375 51.882812 -16.335938 48.8125 -12.421875 C 45.738281 -8.515625 41.941406 -5.46875 37.421875 -3.28125 C 32.898438 -1.09375 27.921875 0 22.484375 0 Z M 11.96875 -6.40625 L 22.9375 -6.40625 C 27.101562 -6.40625 30.9375 -7.28125 34.4375 -9.03125 C 37.945312 -10.78125 40.894531 -13.21875 43.28125 -16.34375 C 45.675781 -19.46875 47.28125 -23.066406 48.09375 -27.140625 C 48.90625 -31.148438 48.773438 -34.628906 47.703125 -37.578125 C 46.640625 -40.523438 44.757812 -42.820312 42.0625 -44.46875 C 39.375 -46.125 36 -46.953125 31.9375 -46.953125 L 20.046875 -46.953125 Z M 11.96875 -6.40625 "/></g></g></g><g fill="#363636" fill-opacity="1"><g transform="translate(268.379859, 81.794676)"><g><path d="M 21.875 0.984375 C 17.707031 0.984375 14.160156 0.273438 11.234375 -1.140625 C 8.316406 -2.566406 6.207031 -4.585938 4.90625 -7.203125 C 3.613281 -9.816406 3.273438 -12.90625 3.890625 -16.46875 L 10.671875 -16.46875 C 10.109375 -13.0625 10.816406 -10.363281 12.796875 -8.375 C 14.785156 -6.394531 17.910156 -5.40625 22.171875 -5.40625 C 26.191406 -5.40625 29.445312 -6.179688 31.9375 -7.734375 C 34.425781 -9.285156 35.898438 -11.179688 36.359375 -13.421875 C 36.867188 -15.953125 36.347656 -18.003906 34.796875 -19.578125 C 33.242188 -21.160156 30.128906 -22.535156 25.453125 -23.703125 C 19.003906 -25.378906 14.484375 -27.515625 11.890625 -30.109375 C 9.296875 -32.703125 8.457031 -36.285156 9.375 -40.859375 C 9.882812 -43.546875 11.066406 -45.894531 12.921875 -47.90625 C 14.773438 -49.914062 17.160156 -51.488281 20.078125 -52.625 C 23.003906 -53.769531 26.347656 -54.34375 30.109375 -54.34375 C 36.304688 -54.34375 40.925781 -52.832031 43.96875 -49.8125 C 47.019531 -46.789062 48.113281 -42.710938 47.25 -37.578125 L 40.46875 -37.578125 C 41.082031 -40.828125 40.472656 -43.363281 38.640625 -45.1875 C 36.816406 -47.019531 33.820312 -47.9375 29.65625 -47.9375 C 26.039062 -47.9375 23 -47.175781 20.53125 -45.65625 C 18.070312 -44.132812 16.640625 -42.253906 16.234375 -40.015625 C 15.722656 -37.421875 16.28125 -35.359375 17.90625 -33.828125 C 19.53125 -32.304688 22.734375 -30.988281 27.515625 -29.875 C 33.816406 -28.351562 38.238281 -26.191406 40.78125 -23.390625 C 43.320312 -20.597656 44.160156 -17.09375 43.296875 -12.875 C 42.484375 -8.707031 40.21875 -5.351562 36.5 -2.8125 C 32.789062 -0.28125 27.914062 0.984375 21.875 0.984375 Z M 21.875 0.984375 "/></g></g></g><g fill="#363636" fill-opacity="1"><g transform="translate(329.349744, 81.794676)"><g><path d="M 28.359375 0.984375 C 22.867188 0.984375 18.253906 -0.21875 14.515625 -2.625 C 10.785156 -5.039062 8.144531 -8.359375 6.59375 -12.578125 C 5.039062 -16.796875 4.800781 -21.648438 5.875 -27.140625 C 6.9375 -32.523438 9.015625 -37.257812 12.109375 -41.34375 C 15.210938 -45.4375 19.035156 -48.625 23.578125 -50.90625 C 28.128906 -53.195312 33.078125 -54.34375 38.421875 -54.34375 C 43.953125 -54.34375 48.582031 -53.132812 52.3125 -50.71875 C 56.050781 -48.3125 58.707031 -45 60.28125 -40.78125 C 61.863281 -36.5625 62.09375 -31.707031 60.96875 -26.21875 C 59.90625 -20.832031 57.820312 -16.09375 54.71875 -12 C 51.625 -7.914062 47.800781 -4.726562 43.25 -2.4375 C 38.707031 -0.15625 33.742188 0.984375 28.359375 0.984375 Z M 12.65625 -26.21875 C 11.84375 -22.15625 11.96875 -18.570312 13.03125 -15.46875 C 14.101562 -12.375 15.984375 -9.972656 18.671875 -8.265625 C 21.367188 -6.566406 24.722656 -5.71875 28.734375 -5.71875 C 32.898438 -5.71875 36.75 -6.628906 40.28125 -8.453125 C 43.8125 -10.285156 46.796875 -12.816406 49.234375 -16.046875 C 51.671875 -19.273438 53.296875 -22.972656 54.109375 -27.140625 C 54.972656 -31.253906 54.859375 -34.847656 53.765625 -37.921875 C 52.679688 -40.992188 50.800781 -43.378906 48.125 -45.078125 C 45.457031 -46.785156 42.117188 -47.640625 38.109375 -47.640625 C 33.941406 -47.640625 30.078125 -46.722656 26.515625 -44.890625 C 22.960938 -43.066406 19.976562 -40.550781 17.5625 -37.34375 C 15.15625 -34.144531 13.519531 -30.4375 12.65625 -26.21875 Z M 12.65625 -26.21875 "/></g></g></g><g fill="#363636" fill-opacity="1"><g transform="translate(405.104387, 81.794676)"><g><path d="M 3.8125 0 L 14.484375 -53.359375 L 33.921875 -53.359375 C 37.828125 -53.359375 41.078125 -52.617188 43.671875 -51.140625 C 46.265625 -49.671875 48.09375 -47.613281 49.15625 -44.96875 C 50.226562 -42.320312 50.40625 -39.25 49.6875 -35.75 C 48.875 -31.582031 47.082031 -28.113281 44.3125 -25.34375 C 41.550781 -22.570312 38.0625 -20.726562 33.84375 -19.8125 L 43.296875 0 L 35.96875 0 L 26.828125 -19.125 L 14.484375 -19.125 L 10.671875 0 Z M 15.78125 -25.53125 L 27.59375 -25.53125 C 31.957031 -25.53125 35.421875 -26.507812 37.984375 -28.46875 C 40.554688 -30.425781 42.195312 -33.109375 42.90625 -36.515625 C 43.570312 -39.765625 43.078125 -42.316406 41.421875 -44.171875 C 39.773438 -46.023438 36.765625 -46.953125 32.390625 -46.953125 L 20.046875 -46.953125 Z M 15.78125 -25.53125 "/></g></g></g><g fill="#363636" fill-opacity="1"><g transform="translate(468.66544, 81.794676)"><g><path d="M 3.8125 0 L 14.484375 -53.359375 L 21.34375 -53.359375 L 10.671875 0 Z M 3.8125 0 "/></g></g></g><g fill="#363636" fill-opacity="1"><g transform="translate(502.809282, 81.794676)"><g><path d="M 16.609375 0 L 25.984375 -46.953125 L 8.078125 -46.953125 L 9.375 -53.359375 L 52.140625 -53.359375 L 50.84375 -46.953125 L 32.78125 -46.953125 L 23.46875 0 Z M 16.609375 0 "/></g></g></g><g fill="#363636" fill-opacity="1"><g transform="translate(562.559814, 81.794676)"><g><path d="M 3.8125 0 L 14.484375 -53.359375 L 46.875 -53.359375 L 45.65625 -47.109375 L 20.046875 -47.109375 L 16.6875 -30.265625 L 40.3125 -30.265625 L 39.09375 -24.078125 L 15.46875 -24.078125 L 11.96875 -6.25 L 38.265625 -6.25 L 37.046875 0 Z M 3.8125 0 "/></g></g></g><g fill="#363636" fill-opacity="1"><g transform="translate(619.566685, 81.794676)"><g><path d="M 21.875 0.984375 C 17.707031 0.984375 14.160156 0.273438 11.234375 -1.140625 C 8.316406 -2.566406 6.207031 -4.585938 4.90625 -7.203125 C 3.613281 -9.816406 3.273438 -12.90625 3.890625 -16.46875 L 10.671875 -16.46875 C 10.109375 -13.0625 10.816406 -10.363281 12.796875 -8.375 C 14.785156 -6.394531 17.910156 -5.40625 22.171875 -5.40625 C 26.191406 -5.40625 29.445312 -6.179688 31.9375 -7.734375 C 34.425781 -9.285156 35.898438 -11.179688 36.359375 -13.421875 C 36.867188 -15.953125 36.347656 -18.003906 34.796875 -19.578125 C 33.242188 -21.160156 30.128906 -22.535156 25.453125 -23.703125 C 19.003906 -25.378906 14.484375 -27.515625 11.890625 -30.109375 C 9.296875 -32.703125 8.457031 -36.285156 9.375 -40.859375 C 9.882812 -43.546875 11.066406 -45.894531 12.921875 -47.90625 C 14.773438 -49.914062 17.160156 -51.488281 20.078125 -52.625 C 23.003906 -53.769531 26.347656 -54.34375 30.109375 -54.34375 C 36.304688 -54.34375 40.925781 -52.832031 43.96875 -49.8125 C 47.019531 -46.789062 48.113281 -42.710938 47.25 -37.578125 L 40.46875 -37.578125 C 41.082031 -40.828125 40.472656 -43.363281 38.640625 -45.1875 C 36.816406 -47.019531 33.820312 -47.9375 29.65625 -47.9375 C 26.039062 -47.9375 23 -47.175781 20.53125 -45.65625 C 18.070312 -44.132812 16.640625 -42.253906 16.234375 -40.015625 C 15.722656 -37.421875 16.28125 -35.359375 17.90625 -33.828125 C 19.53125 -32.304688 22.734375 -30.988281 27.515625 -29.875 C 33.816406 -28.351562 38.238281 -26.191406 40.78125 -23.390625 C 43.320312 -20.597656 44.160156 -17.09375 43.296875 -12.875 C 42.484375 -8.707031 40.21875 -5.351562 36.5 -2.8125 C 32.789062 -0.28125 27.914062 0.984375 21.875 0.984375 Z M 21.875 0.984375 "/></g></g></g><g fill="#363636" fill-opacity="1"><g transform="translate(679.164723, 81.794676)"><g/></g></g><g fill="#363636" fill-opacity="1"><g transform="translate(709.802906, 81.794676)"><g><path d="M 3.8125 0 L 14.484375 -53.359375 L 45.046875 -53.359375 L 43.828125 -47.109375 L 20.046875 -47.109375 L 16.390625 -28.65625 L 38.1875 -28.65625 L 36.96875 -22.484375 L 15.171875 -22.484375 L 10.671875 0 Z M 3.8125 0 "/></g></g></g><g fill="#363636" fill-opacity="1"><g transform="translate(763.304087, 81.794676)"><g><path d="M 28.359375 0.984375 C 22.867188 0.984375 18.253906 -0.21875 14.515625 -2.625 C 10.785156 -5.039062 8.144531 -8.359375 6.59375 -12.578125 C 5.039062 -16.796875 4.800781 -21.648438 5.875 -27.140625 C 6.9375 -32.523438 9.015625 -37.257812 12.109375 -41.34375 C 15.210938 -45.4375 19.035156 -48.625 23.578125 -50.90625 C 28.128906 -53.195312 33.078125 -54.34375 38.421875 -54.34375 C 43.953125 -54.34375 48.582031 -53.132812 52.3125 -50.71875 C 56.050781 -48.3125 58.707031 -45 60.28125 -40.78125 C 61.863281 -36.5625 62.09375 -31.707031 60.96875 -26.21875 C 59.90625 -20.832031 57.820312 -16.09375 54.71875 -12 C 51.625 -7.914062 47.800781 -4.726562 43.25 -2.4375 C 38.707031 -0.15625 33.742188 0.984375 28.359375 0.984375 Z M 12.65625 -26.21875 C 11.84375 -22.15625 11.96875 -18.570312 13.03125 -15.46875 C 14.101562 -12.375 15.984375 -9.972656 18.671875 -8.265625 C 21.367188 -6.566406 24.722656 -5.71875 28.734375 -5.71875 C 32.898438 -5.71875 36.75 -6.628906 40.28125 -8.453125 C 43.8125 -10.285156 46.796875 -12.816406 49.234375 -16.046875 C 51.671875 -19.273438 53.296875 -22.972656 54.109375 -27.140625 C 54.972656 -31.253906 54.859375 -34.847656 53.765625 -37.921875 C 52.679688 -40.992188 50.800781 -43.378906 48.125 -45.078125 C 45.457031 -46.785156 42.117188 -47.640625 38.109375 -47.640625 C 33.941406 -47.640625 30.078125 -46.722656 26.515625 -44.890625 C 22.960938 -43.066406 19.976562 -40.550781 17.5625 -37.34375 C 15.15625 -34.144531 13.519531 -30.4375 12.65625 -26.21875 Z M 12.65625 -26.21875 "/></g></g></g><g fill="#363636" fill-opacity="1"><g transform="translate(839.058731, 81.794676)"><g><path d="M 3.8125 0 L 14.484375 -53.359375 L 33.921875 -53.359375 C 37.828125 -53.359375 41.078125 -52.617188 43.671875 -51.140625 C 46.265625 -49.671875 48.09375 -47.613281 49.15625 -44.96875 C 50.226562 -42.320312 50.40625 -39.25 49.6875 -35.75 C 48.875 -31.582031 47.082031 -28.113281 44.3125 -25.34375 C 41.550781 -22.570312 38.0625 -20.726562 33.84375 -19.8125 L 43.296875 0 L 35.96875 0 L 26.828125 -19.125 L 14.484375 -19.125 L 10.671875 0 Z M 15.78125 -25.53125 L 27.59375 -25.53125 C 31.957031 -25.53125 35.421875 -26.507812 37.984375 -28.46875 C 40.554688 -30.425781 42.195312 -33.109375 42.90625 -36.515625 C 43.570312 -39.765625 43.078125 -42.316406 41.421875 -44.171875 C 39.773438 -46.023438 36.765625 -46.953125 32.390625 -46.953125 L 20.046875 -46.953125 Z M 15.78125 -25.53125 "/></g></g></g></g></g></svg>